<?xml version="1.0" encoding="UTF-8"?>
<svg version="1.1" xmlns="http://www.w3.org/2000/svg" xmlns:xlink="http://www.w3.org/1999/xlink">
<defs>

</defs>
<symbol id="i-apps" xmlns="http://www.w3.org/2000/svg" aria-hidden="true" style="-ms-transform:rotate(360deg);-webkit-transform:rotate(360deg)" viewBox="0 0 512 512" transform="rotate(360)"><path d="M104 160a56 56 0 1156-56 56.06 56.06 0 01-56 56zM256 160a56 56 0 1156-56 56.06 56.06 0 01-56 56zM408 160a56 56 0 1156-56 56.06 56.06 0 01-56 56zM104 312a56 56 0 1156-56 56.06 56.06 0 01-56 56zM256 312a56 56 0 1156-56 56.06 56.06 0 01-56 56zM408 312a56 56 0 1156-56 56.06 56.06 0 01-56 56zM104 464a56 56 0 1156-56 56.06 56.06 0 01-56 56zM256 464a56 56 0 1156-56 56.06 56.06 0 01-56 56zM408 464a56 56 0 1156-56 56.06 56.06 0 01-56 56z"/></symbol>
<symbol id="i-attach-file" xmlns="http://www.w3.org/2000/svg" viewBox="0 0 24 24"><path d="M16.5 6v11.5c0 2.21-1.79 4-4 4s-4-1.79-4-4V5a2.5 2.5 0 015 0v10.5c0 .55-.45 1-1 1s-1-.45-1-1V6H10v9.5a2.5 2.5 0 005 0V5c0-2.21-1.79-4-4-4S7 2.79 7 5v12.5c0 3.04 2.46 5.5 5.5 5.5s5.5-2.46 5.5-5.5V6h-1.5z"/></symbol>
<symbol id="i-close" xmlns="http://www.w3.org/2000/svg" viewBox="0 0 24 24"><path d="M0 0h24v24H0z" fill="none"/><path d="M19 6.41L17.59 5 12 10.59 6.41 5 5 6.41 10.59 12 5 17.59 6.41 19 12 13.41 17.59 19 19 17.59 13.41 12z"/></symbol>
<symbol id="i-delete" xmlns="http://www.w3.org/2000/svg" viewBox="0 0 24 24"><path d="M0 0h24v24H0z" fill="none"/><path d="M6 19c0 1.1.9 2 2 2h8c1.1 0 2-.9 2-2V7H6v12zM19 4h-3.5l-1-1h-5l-1 1H5v2h14V4z"/></symbol>
<symbol id="i-description" xmlns="http://www.w3.org/2000/svg" viewBox="0 0 24 24"><path d="M0 0h24v24H0z" fill="none"/><path d="M14 2H6c-1.1 0-1.99.9-1.99 2L4 20c0 1.1.89 2 1.99 2H18c1.1 0 2-.9 2-2V8l-6-6zm2 16H8v-2h8v2zm0-4H8v-2h8v2zm-3-5V3.5L18.5 9H13z"/></symbol>
<symbol id="i-discord" viewBox="0 0 24 24" xmlns="http://www.w3.org/2000/svg"><path d="M3.58 21.196h14.259l-.681-2.205C17.259 19.079 23 24 23 24V2.475C22.932 1.137 21.78 0 20.352 0L3.585.003C2.158.003 1 1.142 1 2.48v16.24c0 1.411 1.156 2.476 2.58 2.476zM14.128 5.683l-.033.012.012-.012zM6.497 6.952c1.833-1.334 3.532-1.27 3.532-1.27l.137.135c-2.243.535-3.26 1.537-3.26 1.537.104-.022 4.633-2.635 10.121.066 0 0-1.019-.937-3.124-1.537l.186-.183c.291.001 1.831.055 3.479 1.26 0 0 1.844 3.15 1.844 7.02-.061-.074-1.144 1.666-3.931 1.726 0 0-.472-.534-.808-1 1.63-.468 2.24-1.404 2.24-1.404-3.173 1.998-5.954 1.686-9.281.336-.031 0-.045-.014-.061-.03v-.006c-.016-.015-.03-.03-.061-.03h-.06c-.204-.134-.34-.2-.34-.2s.609.936 2.174 1.404a22.262 22.262 0 00-.818 1.002c-2.786-.066-3.802-1.806-3.802-1.806 0-3.876 1.833-7.02 1.833-7.02z"/><path d="M14.308 12.771c.711 0 1.29-.6 1.29-1.34 0-.735-.576-1.335-1.29-1.335v.003c-.708 0-1.288.598-1.29 1.338 0 .734.579 1.334 1.29 1.334zM9.69 12.771c.711 0 1.29-.6 1.29-1.34 0-.735-.575-1.335-1.286-1.335l-.004.003c-.711 0-1.29.598-1.29 1.338 0 .734.579 1.334 1.29 1.334z"/></symbol>
<symbol id="i-edit" xmlns="http://www.w3.org/2000/svg" viewBox="0 0 24 24"><path d="M0 0h24v24H0z" fill="none"/><path d="M3 17.25V21h3.75L17.81 9.94l-3.75-3.75L3 17.25zM20.71 7.04a.996.996 0 000-1.41l-2.34-2.34a.996.996 0 00-1.41 0l-1.83 1.83 3.75 3.75 1.83-1.83z"/></symbol>
<symbol id="i-email" xmlns="http://www.w3.org/2000/svg" viewBox="0 0 490.667 490.667"><path d="M480.427 32.642L301.014 162.348l-29.44 21.333c-15.596 11.522-36.884 11.522-52.48 0l-29.44-21.333L10.027 32.855a53.035 53.035 0 0143.307-22.187h384a53.334 53.334 0 0143.093 21.974z" fill="#ffd54f"/><g fill="#ffc107"><path d="M10.027 32.855l179.627 129.493-174.08 174.08A53.334 53.334 0 010 298.668V64.002a52.695 52.695 0 0110.027-31.147zM490.667 64.002v234.667a53.333 53.333 0 01-15.573 37.76l-174.08-174.08L480.427 32.642a53.029 53.029 0 0110.24 31.36z"/></g><path d="M320 394.668c-14.165 0-21.333-10.667-21.333-32 .349-29.807-23.531-54.252-53.338-54.601-29.807-.349-54.252 23.531-54.601 53.338-.349 29.807 23.531 54.252 53.338 54.601a53.972 53.972 0 0041.609-18.842A38.037 38.037 0 00320 416.001c42.667 0 42.667-40.149 42.667-53.333.001-64.801-52.53-117.334-117.331-117.336S128.002 297.862 128 362.664c-.001 64.801 52.53 117.334 117.331 117.336a117.334 117.334 0 0081.581-33c4.236-4.124 4.326-10.9.203-15.136-4.124-4.236-10.9-4.326-15.136-.203-38.161 36.807-98.935 35.709-135.742-2.452s-35.709-98.935 2.452-135.742c38.161-36.807 98.935-35.709 135.742 2.452a96.002 96.002 0 0126.903 66.75c0 23.914-5.376 31.999-21.334 31.999zm-74.666 0c-17.673 0-32-14.327-32-32s14.327-32 32-32 32 14.327 32 32-14.327 32-32 32z" fill="#455a64"/><path d="M301.014 162.348l-29.44 21.333c-15.596 11.522-36.884 11.522-52.48 0l-29.44-21.333-174.08 174.08a53.33 53.33 0 0037.76 15.573H107.2c5.771-76.283 72.288-133.445 148.572-127.674 68.259 5.164 122.51 59.415 127.674 127.674h53.888a53.333 53.333 0 0037.76-15.573l-174.08-174.08z" fill="#ffa000"/></symbol>
<symbol id="i-error-outline" xmlns="http://www.w3.org/2000/svg" viewBox="0 0 20 20"><path d="M9 13h2v2H9zm0-8h2v6H9zm.99-5A10 10 0 1020 10 10 10 0 009.99 0zM10 18a8 8 0 118-8 8 8 0 01-8 8z"/></symbol>
<symbol id="i-hammer" xmlns="http://www.w3.org/2000/svg" viewBox="0 0 559.734 559.734"><path d="M78.354 546.289l202.474-202.473 62.748 62.748 157.627-157.627L310.799 58.532 153.166 216.159l62.748 62.748L13.446 481.381c-17.925 17.926-17.925 46.99 0 64.914 17.925 17.92 46.983 17.92 64.908-.006zM119.469 206.581a12.19 12.19 0 008.654 3.586c3.133 0 6.267-1.193 8.653-3.586l3.409-3.409L297.812 45.545l3.408-3.409c4.779-4.78 4.779-12.527 0-17.307L279.978 3.586C277.591 1.193 274.458 0 271.324 0s-6.267 1.193-8.654 3.586L98.226 168.031c-4.78 4.78-4.78 12.528 0 17.308l21.243 21.242zM534.906 258.515a12.19 12.19 0 00-8.654-3.586 12.176 12.176 0 00-8.652 3.586l-3.41 3.409-157.626 157.627-3.41 3.408c-4.779 4.779-4.779 12.527 0 17.309l21.242 21.242c2.395 2.393 5.521 3.586 8.654 3.586s6.268-1.193 8.654-3.586l164.443-164.445c4.779-4.779 4.779-12.527 0-17.307l-21.241-21.243z"/></symbol>
<symbol id="i-image" xmlns="http://www.w3.org/2000/svg" viewBox="0 0 24 24"><path d="M0 0h24v24H0z" fill="none"/><path d="M21 19V5c0-1.1-.9-2-2-2H5c-1.1 0-2 .9-2 2v14c0 1.1.9 2 2 2h14c1.1 0 2-.9 2-2zM8.5 13.5l2.5 3.01L14.5 12l4.5 6H5l3.5-4.5z"/></symbol>
<symbol id="i-menu" xmlns="http://www.w3.org/2000/svg" viewBox="0 0 512 512"><circle cx="256" cy="256" r="64"/><circle cx="256" cy="448" r="64"/><circle cx="256" cy="64" r="64"/></symbol>
<symbol id="i-menu-open" xmlns="http://www.w3.org/2000/svg" viewBox="0 0 24 24"><path d="M0 0h24v24H0V0z" fill="none"/><path d="M0 20h17.3v-2.7H0V20zm0-6.7h13.3v-2.7H0v2.7zM0 4v2.7h17.3V4H0zm24 12.8L19.2 12 24 7.2l-1.9-1.9-6.6 6.7 6.7 6.7 1.8-1.9z"/></symbol>
<symbol id="i-paper-plane" xmlns="http://www.w3.org/2000/svg" aria-hidden="true" viewBox="0 0 512 512"><path d="M473 39.05a24 24 0 00-25.5-5.46L47.47 185h-.08a24 24 0 001 45.16l.41.13 137.3 58.63a16 16 0 0015.54-3.59L422 80a7.07 7.07 0 0110 10L226.66 310.26a16 16 0 00-3.59 15.54l58.65 137.38c.06.2.12.38.19.57 3.2 9.27 11.3 15.81 21.09 16.25h1a24.63 24.63 0 0023-15.46L478.39 64.62A24 24 0 00473 39.05z"/></symbol>
<symbol id="i-sent" viewBox="0 0 497 497" xmlns="http://www.w3.org/2000/svg"><path d="M497 201.69v242.58c0 5.06-1.33 9.81-3.68 13.91-2.5 4.42-6.18 8.1-10.61 10.6-4.1 2.33-8.83 3.66-13.88 3.66H28.17c-5.05 0-9.78-1.33-13.88-3.66-4.43-2.5-8.11-6.18-10.61-10.6-2.35-4.1-3.68-8.85-3.68-13.91V201.69c0-7.89 3.24-15.02 8.47-20.13h480.06a28.05 28.05 0 018.47 20.13z" fill="#0593fc"/><path d="M493.32 458.18c-2.5 4.42-6.18 8.1-10.61 10.6l-144.4-144.2c-2.93-2.93-2.93-7.67-.01-10.61a7.502 7.502 0 0110.61 0zM158.69 324.58l-144.4 144.2c-4.43-2.5-8.11-6.18-10.61-10.6l144.41-144.21a7.502 7.502 0 0110.61 0c2.92 2.94 2.92 7.68-.01 10.61z" fill="#0181fa"/><path d="M488.53 181.564h-22.593a28.05 28.05 0 018.47 20.13v242.58c0 15.56-12.61 28.17-28.17 28.17h22.593c15.56 0 28.17-12.61 28.17-28.17v-242.58c0-7.89-3.24-15.02-8.47-20.13z" fill="#0181fa"/><path d="M488.53 181.564l-201.79 191.74c-21.43 20.36-55.05 20.36-76.48 0L8.47 181.564a28.039 28.039 0 0119.7-8.04h440.66c7.67 0 14.62 3.06 19.7 8.04z" fill="#eaf6ff"/><path d="M345.24 173.524c-12.18 54.69-60.98 95.57-119.33 95.57-58.36 0-107.16-40.88-119.34-95.57zM468.83 173.524h-22.593c3.441 0 6.736.616 9.784 1.744 5.492 2.034 6.854 9.205 2.608 13.24L264.147 373.304a55.282 55.282 0 01-26.943 14.099c17.256 3.573 35.873-1.118 49.537-14.099l201.79-191.74a28.043 28.043 0 00-19.701-8.04z" fill="#c8effe"/><path d="M257.267 429.501h-17.533c-9.824 0-17.787-7.964-17.787-17.787V354.35c0-9.824 7.964-17.787 17.787-17.787h17.533c9.824 0 17.787 7.964 17.787 17.787v57.364c0 9.823-7.964 17.787-17.787 17.787z" fill="#99e6fc"/><path d="M275.05 354.354v57.36c0 9.82-7.96 17.79-17.78 17.79h-12.75c4.78-3.17 7.94-8.61 7.94-14.79v-62.36c0-6.89-3.91-12.85-9.64-15.79h14.45c9.82 0 17.78 7.96 17.78 17.79z" fill="#62dbfb"/><circle cx="248.5" cy="146.824" fill="#4fc123" r="122.268"/><path d="M248.5 24.556c-3.81 0-7.576.183-11.297.524 62.23 5.702 110.971 58.027 110.971 121.744s-48.742 116.042-110.971 121.744c3.721.341 7.487.524 11.297.524 67.527 0 122.268-54.741 122.268-122.268S316.027 24.556 248.5 24.556z" fill="#47a920"/><path d="M230.83 143.883l-17.488-17.488c-4.461-4.461-11.695-4.461-16.156 0l-15.161 15.161c-4.461 4.461-4.461 11.695 0 16.156l38.843 38.843c8.05 8.05 21.102 8.05 29.152 0l75.955-75.955c4.461-4.461 4.461-11.695 0-16.156l-14.042-14.042c-4.461-4.461-11.695-4.461-16.156 0l-53.482 53.482a8.108 8.108 0 01-11.465-.001z" fill="#d1f19e"/><path d="M325.975 104.444l-14.042-14.042c-4.461-4.461-11.695-4.461-16.156 0l-4.668 4.668a11.372 11.372 0 015.905 3.138l6.369 6.236c4.461 4.461 4.461 11.695 0 16.156l-66.178 64.006c-6.851 6.851-17.315 7.849-25.245 3.04l8.909 8.909c8.05 8.05 21.102 8.05 29.152 0l75.955-75.955c4.461-4.462 4.461-11.695-.001-16.156z" fill="#bbec6c"/></symbol>
<symbol id="i-spinner" xmlns="http://www.w3.org/2000/svg" version="1.0" viewBox="0 0 128 128"><path fill="#fff" d="M64.4 16a49 49 0 00-50 48 51 51 0 0050 52.2 53 53 0 0054-52c-.7-48-45-55.7-45-55.7s45.3 3.8 49 55.6c.8 32-24.8 59.5-58 60.2-33 .8-61.4-25.7-62-60C1.3 29.8 28.8.6 64.3 0c0 0 8.5 0 8.7 8.4 0 8-8.6 7.6-8.6 7.6z"/></symbol>
<symbol id="i-star" xmlns="http://www.w3.org/2000/svg" viewBox="0 0 24 24"><path d="M0 0h24v24H0z" fill="none"/><path d="M12 17.27L18.18 21l-1.64-7.03L22 9.24l-7.19-.61L12 2 9.19 8.63 2 9.24l5.46 4.73L5.82 21z"/></symbol>
<symbol id="i-upload" xmlns="http://www.w3.org/2000/svg" viewBox="0 0 475.078 475.077"><path d="M467.081 327.767c-5.321-5.331-11.797-7.994-19.411-7.994H325.76c-3.994 10.657-10.705 19.411-20.126 26.262-9.425 6.852-19.938 10.28-31.546 10.28h-73.096c-11.609 0-22.126-3.429-31.545-10.28-9.423-6.851-16.13-15.604-20.127-26.262H27.408c-7.612 0-14.083 2.663-19.414 7.994C2.664 333.092 0 339.563 0 347.178v91.361c0 7.61 2.664 14.089 7.994 19.41 5.33 5.329 11.801 7.991 19.414 7.991h420.266c7.61 0 14.086-2.662 19.41-7.991 5.332-5.328 7.994-11.8 7.994-19.41v-91.361c0-7.615-2.662-14.079-7.997-19.411zm-107.056 96.211c-3.621 3.617-7.905 5.428-12.854 5.428s-9.227-1.811-12.847-5.428c-3.614-3.613-5.421-7.898-5.421-12.847s1.807-9.236 5.421-12.847c3.62-3.613 7.898-5.428 12.847-5.428s9.232 1.814 12.854 5.428c3.613 3.61 5.421 7.898 5.421 12.847s-1.808 9.233-5.421 12.847zm73.084 0c-3.614 3.617-7.898 5.428-12.848 5.428-4.948 0-9.229-1.811-12.847-5.428-3.613-3.613-5.42-7.898-5.42-12.847s1.807-9.236 5.42-12.847c3.617-3.613 7.898-5.428 12.847-5.428s9.233 1.814 12.848 5.428c3.617 3.61 5.427 7.898 5.427 12.847s-1.807 9.233-5.427 12.847zM109.632 173.59h73.089v127.909c0 4.948 1.809 9.232 5.424 12.847 3.617 3.613 7.9 5.427 12.847 5.427h73.096c4.948 0 9.227-1.813 12.847-5.427 3.614-3.614 5.421-7.898 5.421-12.847V173.59h73.091c7.997 0 13.613-3.809 16.844-11.42 3.237-7.422 1.902-13.99-3.997-19.701L250.385 14.562c-3.429-3.617-7.706-5.426-12.847-5.426-5.136 0-9.419 1.809-12.847 5.426L96.786 142.469c-5.902 5.711-7.233 12.275-3.999 19.701 3.239 7.615 8.853 11.42 16.845 11.42z"/></symbol>
<symbol id="i-warning" xmlns="http://www.w3.org/2000/svg" viewBox="0 0 512 512"><path d="M322.939 62.642l178.737 309.583A76.877 76.877 0 01512 410.791c0 42.67-34.592 77.264-77.264 77.264H256L194.189 256 256 23.946c28.62 0 53.587 15.573 66.939 38.696z" fill="#3b4145"/><path d="M189.061 62.642L10.323 372.225A76.886 76.886 0 000 410.791c0 42.67 34.592 77.264 77.264 77.264H256V23.946c-28.62 0-53.587 15.573-66.939 38.696z" fill="#525a61"/><path d="M474.913 387.678L296.177 78.098c-8.056-13.959-22.849-22.767-38.848-23.22l152.869 402.275h24.539c25.559 0 46.358-20.798 46.358-46.358a46.346 46.346 0 00-6.182-23.117z" fill="#ffb751"/><path d="M444.853 387.678c3.492 7.005 5.336 14.999 5.336 23.117 0 25.559-17.935 46.358-39.992 46.358H77.264c-25.559 0-46.358-20.799-46.358-46.358a46.355 46.355 0 016.181-23.117l178.736-309.58c8.283-14.34 23.674-23.251 40.177-23.251.443 0 .886.01 1.329.031 13.732.536 26.414 9.323 33.326 23.22l154.198 309.58z" fill="#ffd764"/><path d="M256 354.131v51.509c14.227 0 25.755-11.528 25.755-25.755 0-14.226-11.528-25.754-25.755-25.754z" fill="#3b4145"/><path d="M256 354.131c2.843 0 5.151 11.528 5.151 25.755 0 14.227-2.308 25.755-5.151 25.755-14.227 0-25.755-11.528-25.755-25.755 0-14.227 11.528-25.755 25.755-25.755z" fill="#525a61"/><path d="M256 132.646V323.23c14.227 0 25.755-11.538 25.755-25.755V158.401c0-14.227-11.528-25.755-25.755-25.755z" fill="#3b4145"/><path d="M256 132.646c2.843 0 5.151 11.528 5.151 25.755v139.074c0 14.216-2.308 25.755-5.151 25.755-14.227 0-25.755-11.538-25.755-25.755V158.401c0-14.227 11.528-25.755 25.755-25.755z" fill="#525a61"/></symbol>
</svg>