<?xml version="1.0" encoding="UTF-8"?>
<svg version="1.1" xmlns="http://www.w3.org/2000/svg" xmlns:xlink="http://www.w3.org/1999/xlink">
<defs>

</defs>
<symbol id="i-apps" xmlns="http://www.w3.org/2000/svg" aria-hidden="true" style="-ms-transform:rotate(360deg);-webkit-transform:rotate(360deg)" viewBox="0 0 512 512" transform="rotate(360)"><path d="M104 160a56 56 0 1156-56 56.06 56.06 0 01-56 56zM256 160a56 56 0 1156-56 56.06 56.06 0 01-56 56zM408 160a56 56 0 1156-56 56.06 56.06 0 01-56 56zM104 312a56 56 0 1156-56 56.06 56.06 0 01-56 56zM256 312a56 56 0 1156-56 56.06 56.06 0 01-56 56zM408 312a56 56 0 1156-56 56.06 56.06 0 01-56 56zM104 464a56 56 0 1156-56 56.06 56.06 0 01-56 56zM256 464a56 56 0 1156-56 56.06 56.06 0 01-56 56zM408 464a56 56 0 1156-56 56.06 56.06 0 01-56 56z"/></symbol>
<symbol id="i-attach-file" xmlns="http://www.w3.org/2000/svg" viewBox="0 0 24 24"><path d="M16.5 6v11.5c0 2.21-1.79 4-4 4s-4-1.79-4-4V5a2.5 2.5 0 015 0v10.5c0 .55-.45 1-1 1s-1-.45-1-1V6H10v9.5a2.5 2.5 0 005 0V5c0-2.21-1.79-4-4-4S7 2.79 7 5v12.5c0 3.04 2.46 5.5 5.5 5.5s5.5-2.46 5.5-5.5V6h-1.5z"/></symbol>
<symbol id="i-close" xmlns="http://www.w3.org/2000/svg" viewBox="0 0 24 24"><path d="M0 0h24v24H0z" fill="none"/><path d="M19 6.41L17.59 5 12 10.59 6.41 5 5 6.41 10.59 12 5 17.59 6.41 19 12 13.41 17.59 19 19 17.59 13.41 12z"/></symbol>
<symbol id="i-delete" xmlns="http://www.w3.org/2000/svg" viewBox="0 0 24 24"><path d="M0 0h24v24H0z" fill="none"/><path d="M6 19c0 1.1.9 2 2 2h8c1.1 0 2-.9 2-2V7H6v12zM19 4h-3.5l-1-1h-5l-1 1H5v2h14V4z"/></symbol>
<symbol id="i-description" xmlns="http://www.w3.org/2000/svg" viewBox="0 0 24 24"><path d="M0 0h24v24H0z" fill="none"/><path d="M14 2H6c-1.1 0-1.99.9-1.99 2L4 20c0 1.1.89 2 1.99 2H18c1.1 0 2-.9 2-2V8l-6-6zm2 16H8v-2h8v2zm0-4H8v-2h8v2zm-3-5V3.5L18.5 9H13z"/></symbol>
<symbol id="i-edit" xmlns="http://www.w3.org/2000/svg" viewBox="0 0 24 24"><path d="M0 0h24v24H0z" fill="none"/><path d="M3 17.25V21h3.75L17.81 9.94l-3.75-3.75L3 17.25zM20.71 7.04a.996.996 0 000-1.41l-2.34-2.34a.996.996 0 00-1.41 0l-1.83 1.83 3.75 3.75 1.83-1.83z"/></symbol>
<symbol id="i-error-outline" xmlns="http://www.w3.org/2000/svg" viewBox="0 0 20 20"><path d="M9 13h2v2H9zm0-8h2v6H9zm.99-5A10 10 0 1020 10 10 10 0 009.99 0zM10 18a8 8 0 118-8 8 8 0 01-8 8z"/></symbol>
<symbol id="i-hammer" xmlns="http://www.w3.org/2000/svg" viewBox="0 0 559.734 559.734"><path d="M78.354 546.289l202.474-202.473 62.748 62.748 157.627-157.627L310.799 58.532 153.166 216.159l62.748 62.748L13.446 481.381c-17.925 17.926-17.925 46.99 0 64.914 17.925 17.92 46.983 17.92 64.908-.006zM119.469 206.581a12.19 12.19 0 008.654 3.586c3.133 0 6.267-1.193 8.653-3.586l3.409-3.409L297.812 45.545l3.408-3.409c4.779-4.78 4.779-12.527 0-17.307L279.978 3.586C277.591 1.193 274.458 0 271.324 0s-6.267 1.193-8.654 3.586L98.226 168.031c-4.78 4.78-4.78 12.528 0 17.308l21.243 21.242zM534.906 258.515a12.19 12.19 0 00-8.654-3.586 12.176 12.176 0 00-8.652 3.586l-3.41 3.409-157.626 157.627-3.41 3.408c-4.779 4.779-4.779 12.527 0 17.309l21.242 21.242c2.395 2.393 5.521 3.586 8.654 3.586s6.268-1.193 8.654-3.586l164.443-164.445c4.779-4.779 4.779-12.527 0-17.307l-21.241-21.243z"/></symbol>
<symbol id="i-image" xmlns="http://www.w3.org/2000/svg" viewBox="0 0 24 24"><path d="M0 0h24v24H0z" fill="none"/><path d="M21 19V5c0-1.1-.9-2-2-2H5c-1.1 0-2 .9-2 2v14c0 1.1.9 2 2 2h14c1.1 0 2-.9 2-2zM8.5 13.5l2.5 3.01L14.5 12l4.5 6H5l3.5-4.5z"/></symbol>
<symbol id="i-menu" xmlns="http://www.w3.org/2000/svg" viewBox="0 0 512 512"><circle cx="256" cy="256" r="64"/><circle cx="256" cy="448" r="64"/><circle cx="256" cy="64" r="64"/></symbol>
<symbol id="i-menu-open" xmlns="http://www.w3.org/2000/svg" viewBox="0 0 24 24"><path d="M0 0h24v24H0V0z" fill="none"/><path d="M0 20h17.3v-2.7H0V20zm0-6.7h13.3v-2.7H0v2.7zM0 4v2.7h17.3V4H0zm24 12.8L19.2 12 24 7.2l-1.9-1.9-6.6 6.7 6.7 6.7 1.8-1.9z"/></symbol>
<symbol id="i-paper-plane" xmlns="http://www.w3.org/2000/svg" aria-hidden="true" viewBox="0 0 512 512"><path d="M473 39.05a24 24 0 00-25.5-5.46L47.47 185h-.08a24 24 0 001 45.16l.41.13 137.3 58.63a16 16 0 0015.54-3.59L422 80a7.07 7.07 0 0110 10L226.66 310.26a16 16 0 00-3.59 15.54l58.65 137.38c.06.2.12.38.19.57 3.2 9.27 11.3 15.81 21.09 16.25h1a24.63 24.63 0 0023-15.46L478.39 64.62A24 24 0 00473 39.05z"/></symbol>
<symbol id="i-star" xmlns="http://www.w3.org/2000/svg" viewBox="0 0 24 24"><path d="M0 0h24v24H0z" fill="none"/><path d="M12 17.27L18.18 21l-1.64-7.03L22 9.24l-7.19-.61L12 2 9.19 8.63 2 9.24l5.46 4.73L5.82 21z"/></symbol>
<symbol id="i-upload" xmlns="http://www.w3.org/2000/svg" viewBox="0 0 475.078 475.077"><path d="M467.081 327.767c-5.321-5.331-11.797-7.994-19.411-7.994H325.76c-3.994 10.657-10.705 19.411-20.126 26.262-9.425 6.852-19.938 10.28-31.546 10.28h-73.096c-11.609 0-22.126-3.429-31.545-10.28-9.423-6.851-16.13-15.604-20.127-26.262H27.408c-7.612 0-14.083 2.663-19.414 7.994C2.664 333.092 0 339.563 0 347.178v91.361c0 7.61 2.664 14.089 7.994 19.41 5.33 5.329 11.801 7.991 19.414 7.991h420.266c7.61 0 14.086-2.662 19.41-7.991 5.332-5.328 7.994-11.8 7.994-19.41v-91.361c0-7.615-2.662-14.079-7.997-19.411zm-107.056 96.211c-3.621 3.617-7.905 5.428-12.854 5.428s-9.227-1.811-12.847-5.428c-3.614-3.613-5.421-7.898-5.421-12.847s1.807-9.236 5.421-12.847c3.62-3.613 7.898-5.428 12.847-5.428s9.232 1.814 12.854 5.428c3.613 3.61 5.421 7.898 5.421 12.847s-1.808 9.233-5.421 12.847zm73.084 0c-3.614 3.617-7.898 5.428-12.848 5.428-4.948 0-9.229-1.811-12.847-5.428-3.613-3.613-5.42-7.898-5.42-12.847s1.807-9.236 5.42-12.847c3.617-3.613 7.898-5.428 12.847-5.428s9.233 1.814 12.848 5.428c3.617 3.61 5.427 7.898 5.427 12.847s-1.807 9.233-5.427 12.847zM109.632 173.59h73.089v127.909c0 4.948 1.809 9.232 5.424 12.847 3.617 3.613 7.9 5.427 12.847 5.427h73.096c4.948 0 9.227-1.813 12.847-5.427 3.614-3.614 5.421-7.898 5.421-12.847V173.59h73.091c7.997 0 13.613-3.809 16.844-11.42 3.237-7.422 1.902-13.99-3.997-19.701L250.385 14.562c-3.429-3.617-7.706-5.426-12.847-5.426-5.136 0-9.419 1.809-12.847 5.426L96.786 142.469c-5.902 5.711-7.233 12.275-3.999 19.701 3.239 7.615 8.853 11.42 16.845 11.42z"/></symbol>
</svg>